<mxfile host="app.diagrams.net" modified="2024-04-17T04:11:16.242Z" agent="Mozilla/5.0 (Windows NT 10.0; Win64; x64) AppleWebKit/537.36 (KHTML, like Gecko) Chrome/123.0.0.0 Safari/537.36" etag="h90axmWiHaEn7kbrMeba" version="24.2.5" type="github" pages="2">
  <diagram id="prtHgNgQTEPvFCAcTncT" name="Page-1">
    <mxGraphModel dx="1434" dy="790" grid="1" gridSize="10" guides="1" tooltips="1" connect="1" arrows="1" fold="1" page="1" pageScale="1" pageWidth="827" pageHeight="1169" math="0" shadow="0">
      <root>
        <mxCell id="0" />
        <mxCell id="1" parent="0" />
        <mxCell id="D-pYshELrrwSyLKSpgf6-1" value="HTTP请求处理/响应&lt;div&gt;(HTTP Handling)&lt;/div&gt;" style="rounded=0;whiteSpace=wrap;html=1;" vertex="1" parent="1">
          <mxGeometry x="200" y="140" width="120" height="60" as="geometry" />
        </mxCell>
        <mxCell id="D-pYshELrrwSyLKSpgf6-2" value="URL 映射&lt;div&gt;(URL Mapping)&lt;/div&gt;" style="whiteSpace=wrap;html=1;" vertex="1" parent="1">
          <mxGeometry x="480" y="140" width="120" height="60" as="geometry" />
        </mxCell>
        <mxCell id="D-pYshELrrwSyLKSpgf6-3" value="" style="rounded=1;whiteSpace=wrap;html=1;align=left;" vertex="1" parent="1">
          <mxGeometry x="80" y="240" width="640" height="210" as="geometry" />
        </mxCell>
        <mxCell id="D-pYshELrrwSyLKSpgf6-4" value="&lt;span style=&quot;text-align: left; text-wrap: wrap;&quot;&gt;应用(Appliaction)&lt;/span&gt;" style="text;html=1;align=center;verticalAlign=middle;resizable=0;points=[];autosize=1;strokeColor=none;fillColor=none;" vertex="1" parent="1">
          <mxGeometry x="100" y="260" width="110" height="30" as="geometry" />
        </mxCell>
        <mxCell id="D-pYshELrrwSyLKSpgf6-5" value="模型&lt;div&gt;(Model)&lt;/div&gt;" style="shape=document;whiteSpace=wrap;html=1;boundedLbl=1;" vertex="1" parent="1">
          <mxGeometry x="160" y="305" width="120" height="80" as="geometry" />
        </mxCell>
        <mxCell id="D-pYshELrrwSyLKSpgf6-6" value="视图&lt;div&gt;(View)&lt;/div&gt;" style="shape=document;whiteSpace=wrap;html=1;boundedLbl=1;" vertex="1" parent="1">
          <mxGeometry x="340" y="305" width="120" height="80" as="geometry" />
        </mxCell>
        <mxCell id="D-pYshELrrwSyLKSpgf6-7" value="&lt;div&gt;模板&lt;/div&gt;&lt;div&gt;(Template）&lt;/div&gt;" style="shape=document;whiteSpace=wrap;html=1;boundedLbl=1;" vertex="1" parent="1">
          <mxGeometry x="520" y="305" width="120" height="80" as="geometry" />
        </mxCell>
        <mxCell id="D-pYshELrrwSyLKSpgf6-10" value="&lt;div&gt;对象关系映射&lt;/div&gt;&lt;div&gt;(ORM)&lt;/div&gt;" style="rounded=1;whiteSpace=wrap;html=1;" vertex="1" parent="1">
          <mxGeometry x="200" y="480" width="120" height="60" as="geometry" />
        </mxCell>
        <mxCell id="D-pYshELrrwSyLKSpgf6-11" value="模板引擎&lt;div&gt;(Template Engine)&lt;/div&gt;" style="rounded=1;whiteSpace=wrap;html=1;" vertex="1" parent="1">
          <mxGeometry x="480" y="480" width="120" height="60" as="geometry" />
        </mxCell>
        <mxCell id="D-pYshELrrwSyLKSpgf6-16" value="&lt;div&gt;数据库&lt;/div&gt;&lt;div&gt;(Database)&lt;/div&gt;" style="shape=cylinder3;whiteSpace=wrap;html=1;boundedLbl=1;backgroundOutline=1;size=15;" vertex="1" parent="1">
          <mxGeometry x="220" y="567.5" width="80" height="95" as="geometry" />
        </mxCell>
        <mxCell id="D-pYshELrrwSyLKSpgf6-17" value="文件系统&lt;div&gt;(File System)&lt;/div&gt;" style="whiteSpace=wrap;html=1;" vertex="1" parent="1">
          <mxGeometry x="480" y="585" width="120" height="60" as="geometry" />
        </mxCell>
      </root>
    </mxGraphModel>
  </diagram>
  <diagram id="e8Jh4KPVQGmW9JxN1JmV" name="第 2 页">
    <mxGraphModel dx="1434" dy="790" grid="1" gridSize="10" guides="1" tooltips="1" connect="1" arrows="1" fold="1" page="1" pageScale="1" pageWidth="827" pageHeight="1169" math="0" shadow="0">
      <root>
        <mxCell id="0" />
        <mxCell id="1" parent="0" />
        <mxCell id="edZ5RmzKHcJdsptnvQNX-3" style="edgeStyle=orthogonalEdgeStyle;rounded=0;orthogonalLoop=1;jettySize=auto;html=1;entryX=0.5;entryY=0;entryDx=0;entryDy=0;" edge="1" parent="1" source="edZ5RmzKHcJdsptnvQNX-1" target="edZ5RmzKHcJdsptnvQNX-2">
          <mxGeometry relative="1" as="geometry" />
        </mxCell>
        <mxCell id="edZ5RmzKHcJdsptnvQNX-1" value="开始" style="html=1;dashed=0;whiteSpace=wrap;shape=mxgraph.dfd.start" vertex="1" parent="1">
          <mxGeometry x="374" y="30" width="80" height="30" as="geometry" />
        </mxCell>
        <mxCell id="edZ5RmzKHcJdsptnvQNX-8" value="" style="edgeStyle=orthogonalEdgeStyle;rounded=0;orthogonalLoop=1;jettySize=auto;html=1;" edge="1" parent="1" source="edZ5RmzKHcJdsptnvQNX-2" target="edZ5RmzKHcJdsptnvQNX-6">
          <mxGeometry relative="1" as="geometry" />
        </mxCell>
        <mxCell id="edZ5RmzKHcJdsptnvQNX-2" value="将HTTP请求打包成HttpRequest对象" style="whiteSpace=wrap;html=1;" vertex="1" parent="1">
          <mxGeometry x="354" y="80" width="120" height="60" as="geometry" />
        </mxCell>
        <mxCell id="edZ5RmzKHcJdsptnvQNX-5" value="" style="edgeStyle=orthogonalEdgeStyle;rounded=0;orthogonalLoop=1;jettySize=auto;html=1;" edge="1" parent="1" source="edZ5RmzKHcJdsptnvQNX-4" target="edZ5RmzKHcJdsptnvQNX-2">
          <mxGeometry relative="1" as="geometry" />
        </mxCell>
        <mxCell id="edZ5RmzKHcJdsptnvQNX-4" value="HTTP请求" style="shape=document;whiteSpace=wrap;html=1;boundedLbl=1;" vertex="1" parent="1">
          <mxGeometry x="120" y="85" width="90" height="50" as="geometry" />
        </mxCell>
        <mxCell id="edZ5RmzKHcJdsptnvQNX-9" value="" style="edgeStyle=orthogonalEdgeStyle;rounded=0;orthogonalLoop=1;jettySize=auto;html=1;" edge="1" parent="1" source="edZ5RmzKHcJdsptnvQNX-6" target="edZ5RmzKHcJdsptnvQNX-7">
          <mxGeometry relative="1" as="geometry" />
        </mxCell>
        <mxCell id="edZ5RmzKHcJdsptnvQNX-6" value="Request中间件" style="whiteSpace=wrap;html=1;" vertex="1" parent="1">
          <mxGeometry x="354" y="180" width="120" height="60" as="geometry" />
        </mxCell>
        <mxCell id="edZ5RmzKHcJdsptnvQNX-11" value="" style="edgeStyle=orthogonalEdgeStyle;rounded=0;orthogonalLoop=1;jettySize=auto;html=1;" edge="1" parent="1" source="edZ5RmzKHcJdsptnvQNX-7" target="edZ5RmzKHcJdsptnvQNX-10">
          <mxGeometry relative="1" as="geometry" />
        </mxCell>
        <mxCell id="edZ5RmzKHcJdsptnvQNX-12" value="否" style="edgeLabel;html=1;align=center;verticalAlign=middle;resizable=0;points=[];" vertex="1" connectable="0" parent="edZ5RmzKHcJdsptnvQNX-11">
          <mxGeometry x="-0.1466" y="1" relative="1" as="geometry">
            <mxPoint x="-1" as="offset" />
          </mxGeometry>
        </mxCell>
        <mxCell id="edZ5RmzKHcJdsptnvQNX-37" style="edgeStyle=orthogonalEdgeStyle;rounded=0;orthogonalLoop=1;jettySize=auto;html=1;entryX=1;entryY=0.5;entryDx=0;entryDy=0;exitX=1;exitY=0.5;exitDx=0;exitDy=0;" edge="1" parent="1" source="edZ5RmzKHcJdsptnvQNX-7" target="edZ5RmzKHcJdsptnvQNX-19">
          <mxGeometry relative="1" as="geometry">
            <mxPoint x="760" y="370" as="sourcePoint" />
            <mxPoint x="820" y="760" as="targetPoint" />
            <Array as="points">
              <mxPoint x="750" y="320" />
              <mxPoint x="750" y="750" />
            </Array>
          </mxGeometry>
        </mxCell>
        <mxCell id="edZ5RmzKHcJdsptnvQNX-38" value="是" style="edgeLabel;html=1;align=center;verticalAlign=middle;resizable=0;points=[];" vertex="1" connectable="0" parent="edZ5RmzKHcJdsptnvQNX-37">
          <mxGeometry x="-0.0569" y="-3" relative="1" as="geometry">
            <mxPoint as="offset" />
          </mxGeometry>
        </mxCell>
        <mxCell id="edZ5RmzKHcJdsptnvQNX-7" value="返回Response?" style="rhombus;whiteSpace=wrap;html=1;" vertex="1" parent="1">
          <mxGeometry x="342" y="280" width="144" height="80" as="geometry" />
        </mxCell>
        <mxCell id="edZ5RmzKHcJdsptnvQNX-14" value="" style="edgeStyle=orthogonalEdgeStyle;rounded=0;orthogonalLoop=1;jettySize=auto;html=1;" edge="1" parent="1" source="edZ5RmzKHcJdsptnvQNX-10" target="edZ5RmzKHcJdsptnvQNX-13">
          <mxGeometry relative="1" as="geometry" />
        </mxCell>
        <mxCell id="edZ5RmzKHcJdsptnvQNX-30" value="" style="edgeStyle=orthogonalEdgeStyle;rounded=0;orthogonalLoop=1;jettySize=auto;html=1;" edge="1" parent="1" source="edZ5RmzKHcJdsptnvQNX-10" target="edZ5RmzKHcJdsptnvQNX-23">
          <mxGeometry relative="1" as="geometry" />
        </mxCell>
        <mxCell id="edZ5RmzKHcJdsptnvQNX-10" value="View中间件" style="whiteSpace=wrap;html=1;" vertex="1" parent="1">
          <mxGeometry x="354" y="400" width="120" height="60" as="geometry" />
        </mxCell>
        <mxCell id="edZ5RmzKHcJdsptnvQNX-16" value="" style="edgeStyle=orthogonalEdgeStyle;rounded=0;orthogonalLoop=1;jettySize=auto;html=1;" edge="1" parent="1" source="edZ5RmzKHcJdsptnvQNX-13" target="edZ5RmzKHcJdsptnvQNX-15">
          <mxGeometry relative="1" as="geometry" />
        </mxCell>
        <mxCell id="edZ5RmzKHcJdsptnvQNX-18" value="否" style="edgeLabel;html=1;align=center;verticalAlign=middle;resizable=0;points=[];" vertex="1" connectable="0" parent="edZ5RmzKHcJdsptnvQNX-16">
          <mxGeometry x="-0.2845" relative="1" as="geometry">
            <mxPoint as="offset" />
          </mxGeometry>
        </mxCell>
        <mxCell id="edZ5RmzKHcJdsptnvQNX-35" style="edgeStyle=orthogonalEdgeStyle;rounded=0;orthogonalLoop=1;jettySize=auto;html=1;exitX=1;exitY=0.5;exitDx=0;exitDy=0;entryX=1;entryY=0.5;entryDx=0;entryDy=0;" edge="1" parent="1" source="edZ5RmzKHcJdsptnvQNX-13" target="edZ5RmzKHcJdsptnvQNX-19">
          <mxGeometry relative="1" as="geometry">
            <Array as="points">
              <mxPoint x="520" y="540" />
              <mxPoint x="520" y="750" />
            </Array>
          </mxGeometry>
        </mxCell>
        <mxCell id="edZ5RmzKHcJdsptnvQNX-36" value="是" style="edgeLabel;html=1;align=center;verticalAlign=middle;resizable=0;points=[];" vertex="1" connectable="0" parent="edZ5RmzKHcJdsptnvQNX-35">
          <mxGeometry x="0.0471" y="3" relative="1" as="geometry">
            <mxPoint x="-3" y="2" as="offset" />
          </mxGeometry>
        </mxCell>
        <mxCell id="edZ5RmzKHcJdsptnvQNX-13" value="返回Response?" style="rhombus;whiteSpace=wrap;html=1;" vertex="1" parent="1">
          <mxGeometry x="342" y="500" width="144" height="80" as="geometry" />
        </mxCell>
        <mxCell id="edZ5RmzKHcJdsptnvQNX-20" value="" style="edgeStyle=orthogonalEdgeStyle;rounded=0;orthogonalLoop=1;jettySize=auto;html=1;" edge="1" parent="1" source="edZ5RmzKHcJdsptnvQNX-15" target="edZ5RmzKHcJdsptnvQNX-19">
          <mxGeometry relative="1" as="geometry" />
        </mxCell>
        <mxCell id="edZ5RmzKHcJdsptnvQNX-15" value="调用view视图函数" style="whiteSpace=wrap;html=1;" vertex="1" parent="1">
          <mxGeometry x="354" y="620" width="120" height="60" as="geometry" />
        </mxCell>
        <mxCell id="edZ5RmzKHcJdsptnvQNX-22" value="" style="edgeStyle=orthogonalEdgeStyle;rounded=0;orthogonalLoop=1;jettySize=auto;html=1;" edge="1" parent="1" source="edZ5RmzKHcJdsptnvQNX-19" target="edZ5RmzKHcJdsptnvQNX-21">
          <mxGeometry relative="1" as="geometry" />
        </mxCell>
        <mxCell id="edZ5RmzKHcJdsptnvQNX-19" value="Response中间件" style="whiteSpace=wrap;html=1;" vertex="1" parent="1">
          <mxGeometry x="354" y="720" width="120" height="60" as="geometry" />
        </mxCell>
        <mxCell id="edZ5RmzKHcJdsptnvQNX-21" value="结束" style="html=1;dashed=0;whiteSpace=wrap;shape=mxgraph.dfd.start" vertex="1" parent="1">
          <mxGeometry x="374" y="850" width="80" height="30" as="geometry" />
        </mxCell>
        <mxCell id="edZ5RmzKHcJdsptnvQNX-26" value="" style="edgeStyle=orthogonalEdgeStyle;rounded=0;orthogonalLoop=1;jettySize=auto;html=1;" edge="1" parent="1" source="edZ5RmzKHcJdsptnvQNX-23" target="edZ5RmzKHcJdsptnvQNX-25">
          <mxGeometry relative="1" as="geometry" />
        </mxCell>
        <mxCell id="edZ5RmzKHcJdsptnvQNX-27" value="是" style="edgeLabel;html=1;align=center;verticalAlign=middle;resizable=0;points=[];" vertex="1" connectable="0" parent="edZ5RmzKHcJdsptnvQNX-26">
          <mxGeometry x="-0.2333" relative="1" as="geometry">
            <mxPoint as="offset" />
          </mxGeometry>
        </mxCell>
        <mxCell id="edZ5RmzKHcJdsptnvQNX-23" value="异常？" style="rhombus;whiteSpace=wrap;html=1;" vertex="1" parent="1">
          <mxGeometry x="570" y="390" width="144" height="80" as="geometry" />
        </mxCell>
        <mxCell id="edZ5RmzKHcJdsptnvQNX-29" value="" style="edgeStyle=orthogonalEdgeStyle;rounded=0;orthogonalLoop=1;jettySize=auto;html=1;" edge="1" parent="1" source="edZ5RmzKHcJdsptnvQNX-25" target="edZ5RmzKHcJdsptnvQNX-28">
          <mxGeometry relative="1" as="geometry" />
        </mxCell>
        <mxCell id="edZ5RmzKHcJdsptnvQNX-25" value="Exception中间件" style="whiteSpace=wrap;html=1;" vertex="1" parent="1">
          <mxGeometry x="582" y="520" width="120" height="60" as="geometry" />
        </mxCell>
        <mxCell id="edZ5RmzKHcJdsptnvQNX-32" style="edgeStyle=orthogonalEdgeStyle;rounded=0;orthogonalLoop=1;jettySize=auto;html=1;entryX=1;entryY=0.5;entryDx=0;entryDy=0;exitX=0.5;exitY=1;exitDx=0;exitDy=0;" edge="1" parent="1" source="edZ5RmzKHcJdsptnvQNX-28" target="edZ5RmzKHcJdsptnvQNX-19">
          <mxGeometry relative="1" as="geometry" />
        </mxCell>
        <mxCell id="edZ5RmzKHcJdsptnvQNX-33" value="是" style="edgeLabel;html=1;align=center;verticalAlign=middle;resizable=0;points=[];" vertex="1" connectable="0" parent="edZ5RmzKHcJdsptnvQNX-32">
          <mxGeometry x="0.2034" y="-1" relative="1" as="geometry">
            <mxPoint as="offset" />
          </mxGeometry>
        </mxCell>
        <mxCell id="edZ5RmzKHcJdsptnvQNX-28" value="返回Response?" style="rhombus;whiteSpace=wrap;html=1;" vertex="1" parent="1">
          <mxGeometry x="570" y="620" width="144" height="80" as="geometry" />
        </mxCell>
        <mxCell id="edZ5RmzKHcJdsptnvQNX-40" style="edgeStyle=orthogonalEdgeStyle;rounded=0;orthogonalLoop=1;jettySize=auto;html=1;entryX=0;entryY=0.5;entryDx=0;entryDy=0;" edge="1" parent="1" target="edZ5RmzKHcJdsptnvQNX-39">
          <mxGeometry relative="1" as="geometry">
            <mxPoint x="604" y="819.75" as="targetPoint" />
            <mxPoint x="414" y="819.75" as="sourcePoint" />
          </mxGeometry>
        </mxCell>
        <mxCell id="edZ5RmzKHcJdsptnvQNX-39" value="HTTP响应" style="shape=document;whiteSpace=wrap;html=1;boundedLbl=1;" vertex="1" parent="1">
          <mxGeometry x="610" y="800" width="80" height="40" as="geometry" />
        </mxCell>
      </root>
    </mxGraphModel>
  </diagram>
</mxfile>
